<svg id="visual" viewBox="0 0 960 300" width="960" height="300" xmlns="http://www.w3.org/2000/svg" xmlns:xlink="http://www.w3.org/1999/xlink" version="1.1"><path d="M0 147L10.7 143C21.3 139 42.7 131 64 128.5C85.3 126 106.7 129 128 134.8C149.3 140.7 170.7 149.3 192 152.8C213.3 156.3 234.7 154.7 256 156.8C277.3 159 298.7 165 320 161.8C341.3 158.7 362.7 146.3 384 136.8C405.3 127.3 426.7 120.7 448 123.8C469.3 127 490.7 140 512 146.3C533.3 152.7 554.7 152.3 576 147.8C597.3 143.3 618.7 134.7 640 133C661.3 131.3 682.7 136.7 704 135.7C725.3 134.7 746.7 127.3 768 129.3C789.3 131.3 810.7 142.7 832 147.7C853.3 152.7 874.7 151.3 896 152.5C917.3 153.7 938.7 157.3 949.3 159.2L960 161L960 0L949.3 0C938.7 0 917.3 0 896 0C874.7 0 853.3 0 832 0C810.7 0 789.3 0 768 0C746.7 0 725.3 0 704 0C682.7 0 661.3 0 640 0C618.7 0 597.3 0 576 0C554.7 0 533.3 0 512 0C490.7 0 469.3 0 448 0C426.7 0 405.3 0 384 0C362.7 0 341.3 0 320 0C298.7 0 277.3 0 256 0C234.7 0 213.3 0 192 0C170.7 0 149.3 0 128 0C106.7 0 85.3 0 64 0C42.7 0 21.3 0 10.7 0L0 0Z" fill="#80c5e9"></path><path d="M0 139L10.7 141.3C21.3 143.7 42.7 148.3 64 149.2C85.3 150 106.7 147 128 140.5C149.3 134 170.7 124 192 123C213.3 122 234.7 130 256 126.2C277.3 122.3 298.7 106.7 320 109C341.3 111.3 362.7 131.7 384 142C405.3 152.3 426.7 152.7 448 145.5C469.3 138.3 490.7 123.7 512 117.5C533.3 111.3 554.7 113.7 576 109.5C597.3 105.3 618.7 94.7 640 93.2C661.3 91.7 682.7 99.3 704 102.5C725.3 105.7 746.7 104.3 768 104.8C789.3 105.3 810.7 107.7 832 109.2C853.3 110.7 874.7 111.3 896 107C917.3 102.7 938.7 93.3 949.3 88.7L960 84L960 0L949.3 0C938.7 0 917.3 0 896 0C874.7 0 853.3 0 832 0C810.7 0 789.3 0 768 0C746.7 0 725.3 0 704 0C682.7 0 661.3 0 640 0C618.7 0 597.3 0 576 0C554.7 0 533.3 0 512 0C490.7 0 469.3 0 448 0C426.7 0 405.3 0 384 0C362.7 0 341.3 0 320 0C298.7 0 277.3 0 256 0C234.7 0 213.3 0 192 0C170.7 0 149.3 0 128 0C106.7 0 85.3 0 64 0C42.7 0 21.3 0 10.7 0L0 0Z" fill="#70bfeb"></path><path d="M0 76L10.7 75.3C21.3 74.7 42.7 73.3 64 79.2C85.3 85 106.7 98 128 98.7C149.3 99.3 170.7 87.7 192 80.3C213.3 73 234.7 70 256 77.3C277.3 84.7 298.7 102.3 320 110C341.3 117.7 362.7 115.3 384 115.7C405.3 116 426.7 119 448 113.5C469.3 108 490.7 94 512 91.3C533.3 88.7 554.7 97.3 576 105C597.3 112.7 618.7 119.3 640 115.2C661.3 111 682.7 96 704 95.2C725.3 94.3 746.7 107.7 768 110.3C789.3 113 810.7 105 832 96C853.3 87 874.7 77 896 78.3C917.3 79.7 938.7 92.3 949.3 98.7L960 105L960 0L949.3 0C938.7 0 917.3 0 896 0C874.7 0 853.3 0 832 0C810.7 0 789.3 0 768 0C746.7 0 725.3 0 704 0C682.7 0 661.3 0 640 0C618.7 0 597.3 0 576 0C554.7 0 533.3 0 512 0C490.7 0 469.3 0 448 0C426.7 0 405.3 0 384 0C362.7 0 341.3 0 320 0C298.7 0 277.3 0 256 0C234.7 0 213.3 0 192 0C170.7 0 149.3 0 128 0C106.7 0 85.3 0 64 0C42.7 0 21.3 0 10.7 0L0 0Z" fill="#5eb9ec"></path><path d="M0 81L10.7 81.2C21.3 81.3 42.7 81.7 64 84.2C85.3 86.7 106.7 91.3 128 89.8C149.3 88.3 170.7 80.7 192 80.3C213.3 80 234.7 87 256 87.7C277.3 88.3 298.7 82.7 320 75.5C341.3 68.3 362.7 59.7 384 56.2C405.3 52.7 426.7 54.3 448 62.7C469.3 71 490.7 86 512 92.2C533.3 98.3 554.7 95.7 576 93.2C597.3 90.7 618.7 88.3 640 83.7C661.3 79 682.7 72 704 69.8C725.3 67.7 746.7 70.3 768 75.3C789.3 80.3 810.7 87.7 832 87.5C853.3 87.3 874.7 79.7 896 77.8C917.3 76 938.7 80 949.3 82L960 84L960 0L949.3 0C938.7 0 917.3 0 896 0C874.7 0 853.3 0 832 0C810.7 0 789.3 0 768 0C746.7 0 725.3 0 704 0C682.7 0 661.3 0 640 0C618.7 0 597.3 0 576 0C554.7 0 533.3 0 512 0C490.7 0 469.3 0 448 0C426.7 0 405.3 0 384 0C362.7 0 341.3 0 320 0C298.7 0 277.3 0 256 0C234.7 0 213.3 0 192 0C170.7 0 149.3 0 128 0C106.7 0 85.3 0 64 0C42.7 0 21.3 0 10.7 0L0 0Z" fill="#4bb3ee"></path><path d="M0 33L10.7 35C21.3 37 42.7 41 64 40.5C85.3 40 106.7 35 128 34C149.3 33 170.7 36 192 41.5C213.3 47 234.7 55 256 56.7C277.3 58.3 298.7 53.7 320 55.3C341.3 57 362.7 65 384 63.5C405.3 62 426.7 51 448 46.5C469.3 42 490.7 44 512 48.8C533.3 53.7 554.7 61.3 576 61.3C597.3 61.3 618.7 53.7 640 47.8C661.3 42 682.7 38 704 39.2C725.3 40.3 746.7 46.7 768 49C789.3 51.3 810.7 49.7 832 46.7C853.3 43.7 874.7 39.3 896 42.3C917.3 45.3 938.7 55.7 949.3 60.8L960 66L960 0L949.3 0C938.7 0 917.3 0 896 0C874.7 0 853.3 0 832 0C810.7 0 789.3 0 768 0C746.7 0 725.3 0 704 0C682.7 0 661.3 0 640 0C618.7 0 597.3 0 576 0C554.7 0 533.3 0 512 0C490.7 0 469.3 0 448 0C426.7 0 405.3 0 384 0C362.7 0 341.3 0 320 0C298.7 0 277.3 0 256 0C234.7 0 213.3 0 192 0C170.7 0 149.3 0 128 0C106.7 0 85.3 0 64 0C42.7 0 21.3 0 10.7 0L0 0Z" fill="#35adf0"></path><path d="M0 28L10.7 26.8C21.3 25.7 42.7 23.3 64 25.7C85.3 28 106.7 35 128 34.2C149.3 33.3 170.7 24.7 192 22.5C213.3 20.3 234.7 24.7 256 28C277.3 31.3 298.7 33.7 320 36.5C341.3 39.3 362.7 42.7 384 39.7C405.3 36.7 426.7 27.3 448 24.5C469.3 21.7 490.7 25.3 512 28.8C533.3 32.3 554.7 35.7 576 35.2C597.3 34.7 618.7 30.3 640 31.7C661.3 33 682.7 40 704 42.3C725.3 44.7 746.7 42.3 768 40.3C789.3 38.3 810.7 36.7 832 37.5C853.3 38.3 874.7 41.7 896 43C917.3 44.3 938.7 43.7 949.3 43.3L960 43L960 0L949.3 0C938.7 0 917.3 0 896 0C874.7 0 853.3 0 832 0C810.7 0 789.3 0 768 0C746.7 0 725.3 0 704 0C682.7 0 661.3 0 640 0C618.7 0 597.3 0 576 0C554.7 0 533.3 0 512 0C490.7 0 469.3 0 448 0C426.7 0 405.3 0 384 0C362.7 0 341.3 0 320 0C298.7 0 277.3 0 256 0C234.7 0 213.3 0 192 0C170.7 0 149.3 0 128 0C106.7 0 85.3 0 64 0C42.7 0 21.3 0 10.7 0L0 0Z" fill="#14a6f2"></path></svg>