<svg id="visual" viewBox="0 0 960 300" width="960" height="300" xmlns="http://www.w3.org/2000/svg" xmlns:xlink="http://www.w3.org/1999/xlink" version="1.1"><path d="M0 125L10.7 125.3C21.3 125.7 42.7 126.3 64 128.7C85.3 131 106.7 135 128 146.3C149.3 157.7 170.7 176.3 192 184.3C213.3 192.3 234.7 189.7 256 182.5C277.3 175.3 298.7 163.7 320 159.2C341.3 154.7 362.7 157.3 384 160.7C405.3 164 426.7 168 448 161.8C469.3 155.7 490.7 139.3 512 130.5C533.3 121.7 554.7 120.3 576 122C597.3 123.7 618.7 128.3 640 139C661.3 149.7 682.7 166.3 704 175.2C725.3 184 746.7 185 768 186.2C789.3 187.3 810.7 188.7 832 184.5C853.3 180.3 874.7 170.7 896 164.3C917.3 158 938.7 155 949.3 153.5L960 152L960 301L949.3 301C938.7 301 917.3 301 896 301C874.7 301 853.3 301 832 301C810.7 301 789.3 301 768 301C746.7 301 725.3 301 704 301C682.7 301 661.3 301 640 301C618.7 301 597.3 301 576 301C554.7 301 533.3 301 512 301C490.7 301 469.3 301 448 301C426.7 301 405.3 301 384 301C362.7 301 341.3 301 320 301C298.7 301 277.3 301 256 301C234.7 301 213.3 301 192 301C170.7 301 149.3 301 128 301C106.7 301 85.3 301 64 301C42.7 301 21.3 301 10.7 301L0 301Z" fill="#80c5e9"></path><path d="M0 190L10.7 189.3C21.3 188.7 42.7 187.3 64 185.3C85.3 183.3 106.7 180.7 128 180.7C149.3 180.7 170.7 183.3 192 185C213.3 186.7 234.7 187.3 256 190.2C277.3 193 298.7 198 320 201.3C341.3 204.7 362.7 206.3 384 197C405.3 187.7 426.7 167.3 448 166.3C469.3 165.3 490.7 183.7 512 183.8C533.3 184 554.7 166 576 167.3C597.3 168.7 618.7 189.3 640 190.5C661.3 191.7 682.7 173.3 704 174C725.3 174.7 746.7 194.3 768 200.3C789.3 206.3 810.7 198.7 832 190C853.3 181.3 874.7 171.7 896 169.3C917.3 167 938.7 172 949.3 174.5L960 177L960 301L949.3 301C938.7 301 917.3 301 896 301C874.7 301 853.3 301 832 301C810.7 301 789.3 301 768 301C746.7 301 725.3 301 704 301C682.7 301 661.3 301 640 301C618.7 301 597.3 301 576 301C554.7 301 533.3 301 512 301C490.7 301 469.3 301 448 301C426.7 301 405.3 301 384 301C362.7 301 341.3 301 320 301C298.7 301 277.3 301 256 301C234.7 301 213.3 301 192 301C170.7 301 149.3 301 128 301C106.7 301 85.3 301 64 301C42.7 301 21.3 301 10.7 301L0 301Z" fill="#70bfeb"></path><path d="M0 197L10.7 193.8C21.3 190.7 42.7 184.3 64 185C85.3 185.7 106.7 193.3 128 201.3C149.3 209.3 170.7 217.7 192 221.3C213.3 225 234.7 224 256 219.3C277.3 214.7 298.7 206.3 320 206.8C341.3 207.3 362.7 216.7 384 220.5C405.3 224.3 426.7 222.7 448 215.8C469.3 209 490.7 197 512 193C533.3 189 554.7 193 576 195.5C597.3 198 618.7 199 640 201.7C661.3 204.3 682.7 208.7 704 214C725.3 219.3 746.7 225.7 768 225.3C789.3 225 810.7 218 832 214.5C853.3 211 874.7 211 896 212.3C917.3 213.7 938.7 216.3 949.3 217.7L960 219L960 301L949.3 301C938.7 301 917.3 301 896 301C874.7 301 853.3 301 832 301C810.7 301 789.3 301 768 301C746.7 301 725.3 301 704 301C682.7 301 661.3 301 640 301C618.7 301 597.3 301 576 301C554.7 301 533.3 301 512 301C490.7 301 469.3 301 448 301C426.7 301 405.3 301 384 301C362.7 301 341.3 301 320 301C298.7 301 277.3 301 256 301C234.7 301 213.3 301 192 301C170.7 301 149.3 301 128 301C106.7 301 85.3 301 64 301C42.7 301 21.3 301 10.7 301L0 301Z" fill="#5eb9ec"></path><path d="M0 230L10.7 229.7C21.3 229.3 42.7 228.7 64 228.8C85.3 229 106.7 230 128 231.3C149.3 232.7 170.7 234.3 192 232.8C213.3 231.3 234.7 226.7 256 228.5C277.3 230.3 298.7 238.7 320 236C341.3 233.3 362.7 219.7 384 214.3C405.3 209 426.7 212 448 214.5C469.3 217 490.7 219 512 224.3C533.3 229.7 554.7 238.3 576 234.7C597.3 231 618.7 215 640 212.8C661.3 210.7 682.7 222.3 704 226.8C725.3 231.3 746.7 228.7 768 229.5C789.3 230.3 810.7 234.7 832 236.3C853.3 238 874.7 237 896 235.2C917.3 233.3 938.7 230.7 949.3 229.3L960 228L960 301L949.3 301C938.7 301 917.3 301 896 301C874.7 301 853.3 301 832 301C810.7 301 789.3 301 768 301C746.7 301 725.3 301 704 301C682.7 301 661.3 301 640 301C618.7 301 597.3 301 576 301C554.7 301 533.3 301 512 301C490.7 301 469.3 301 448 301C426.7 301 405.3 301 384 301C362.7 301 341.3 301 320 301C298.7 301 277.3 301 256 301C234.7 301 213.3 301 192 301C170.7 301 149.3 301 128 301C106.7 301 85.3 301 64 301C42.7 301 21.3 301 10.7 301L0 301Z" fill="#4bb3ee"></path><path d="M0 227L10.7 233.3C21.3 239.7 42.7 252.3 64 253.3C85.3 254.3 106.7 243.7 128 239.7C149.3 235.7 170.7 238.3 192 242.3C213.3 246.3 234.7 251.7 256 255C277.3 258.3 298.7 259.7 320 255.3C341.3 251 362.7 241 384 240.7C405.3 240.3 426.7 249.7 448 250.2C469.3 250.7 490.7 242.3 512 243.5C533.3 244.7 554.7 255.3 576 256.7C597.3 258 618.7 250 640 247.2C661.3 244.3 682.7 246.7 704 249.7C725.3 252.7 746.7 256.3 768 257C789.3 257.7 810.7 255.3 832 255.3C853.3 255.3 874.7 257.7 896 259.7C917.3 261.7 938.7 263.3 949.3 264.2L960 265L960 301L949.3 301C938.7 301 917.3 301 896 301C874.7 301 853.3 301 832 301C810.7 301 789.3 301 768 301C746.7 301 725.3 301 704 301C682.7 301 661.3 301 640 301C618.7 301 597.3 301 576 301C554.7 301 533.3 301 512 301C490.7 301 469.3 301 448 301C426.7 301 405.3 301 384 301C362.7 301 341.3 301 320 301C298.7 301 277.3 301 256 301C234.7 301 213.3 301 192 301C170.7 301 149.3 301 128 301C106.7 301 85.3 301 64 301C42.7 301 21.3 301 10.7 301L0 301Z" fill="#35adf0"></path><path d="M0 260L10.7 264.3C21.3 268.7 42.7 277.3 64 277.8C85.3 278.3 106.7 270.7 128 270C149.3 269.3 170.7 275.7 192 274C213.3 272.3 234.7 262.7 256 258.5C277.3 254.3 298.7 255.7 320 255.5C341.3 255.3 362.7 253.7 384 256.3C405.3 259 426.7 266 448 269.8C469.3 273.7 490.7 274.3 512 276C533.3 277.7 554.7 280.3 576 281.3C597.3 282.3 618.7 281.7 640 279.5C661.3 277.3 682.7 273.7 704 272.2C725.3 270.7 746.7 271.3 768 269.8C789.3 268.3 810.7 264.7 832 261.5C853.3 258.3 874.7 255.7 896 258C917.3 260.3 938.7 267.7 949.3 271.3L960 275L960 301L949.3 301C938.7 301 917.3 301 896 301C874.7 301 853.3 301 832 301C810.7 301 789.3 301 768 301C746.7 301 725.3 301 704 301C682.7 301 661.3 301 640 301C618.7 301 597.3 301 576 301C554.7 301 533.3 301 512 301C490.7 301 469.3 301 448 301C426.7 301 405.3 301 384 301C362.7 301 341.3 301 320 301C298.7 301 277.3 301 256 301C234.7 301 213.3 301 192 301C170.7 301 149.3 301 128 301C106.7 301 85.3 301 64 301C42.7 301 21.3 301 10.7 301L0 301Z" fill="#14a6f2"></path></svg>